<svg width="253" height="253" viewBox="0 0 253 253" fill="none" xmlns="http://www.w3.org/2000/svg">
<path fill-rule="evenodd" clip-rule="evenodd" d="M79.8604 205.299C79.8604 203.685 79.8604 202.421 79.8604 201.157C79.8604 162.108 79.861 123.059 79.8586 84.0104C79.8586 79.8463 79.851 79.8434 75.5826 79.8387C71.8817 79.8346 68.1803 79.8381 64.291 79.8381C64.291 69.1779 64.291 58.8363 64.291 48.1278C65.5837 48.1278 66.7263 48.1278 67.8689 48.1278C76.1089 48.1284 84.3512 48.0266 92.5889 48.1861C95.3968 48.2403 98.28 48.6471 100.973 49.4289C105.022 50.6052 106.64 52.6917 109.056 58.4966C109.446 58.1457 109.833 57.8537 110.152 57.501C128.721 36.949 160.985 41.6271 176.577 59.6081C185.193 69.5447 189.539 81.2416 190.875 94.1019C192.547 110.187 190.483 125.653 181.881 139.734C170.211 158.838 148 167.936 127.352 161.681C121.925 160.037 116.956 156.881 111.683 154.375C111.683 170.801 111.683 187.949 111.683 205.299C100.903 205.299 90.5686 205.299 79.8604 205.299ZM162.517 103.141C162.507 97.619 161.586 91.3342 158.555 85.5641C153.91 76.7208 146.673 71.9214 136.506 72.1834C126.44 72.4424 118.932 77.1129 114.963 86.3406C110.047 97.765 110.044 109.481 115.259 120.86C119.367 129.826 126.487 134.925 136.541 134.896C146.776 134.866 154.291 130.032 158.932 120.883C161.607 115.609 162.451 109.914 162.517 103.141Z" fill="white"/>
</svg>
